<svg width="16" height="20" viewBox="0 0 16 20" fill="none" xmlns="http://www.w3.org/2000/svg">
<path fill-rule="evenodd" clip-rule="evenodd" d="M10.5 7C10.0065 7 9.27917 6.74297 8.50911 6.47083L8.5071 6.47012C7.55134 6.13253 6.46833 5.75 5.5 5.75C4.2599 5.75 3.625 5.96823 3.3099 6.1513C3.21562 6.20634 3.1374 6.28512 3.08303 6.37979C3.02865 6.47446 3.00003 6.58171 3 6.69089V16.8182C3 16.9287 3.0439 17.0347 3.12204 17.1129C3.20018 17.191 3.30616 17.2349 3.41667 17.2349C3.52717 17.2349 3.63315 17.191 3.71129 17.1129C3.78943 17.0347 3.83333 16.9287 3.83333 16.8182V13.0706C3.87698 13.0519 3.932 13.0311 4 13.0097C4.26715 12.9257 4.73466 12.8333 5.5 12.8333C6.34433 12.8333 7.31282 13.0621 8.24959 13.2834C9.08319 13.4806 9.87135 13.6667 10.5 13.6667C11.6326 13.6667 12.4607 13.3427 12.6875 13.2435C12.7803 13.203 12.8593 13.1363 12.9148 13.0516C12.9703 12.9669 12.9999 12.8679 13 12.7667V7.05417C13 6.97682 12.9808 6.90068 12.9442 6.83253C12.9077 6.76438 12.8548 6.70635 12.7903 6.6636C12.7259 6.62085 12.6518 6.59472 12.5748 6.58753C12.4978 6.58034 12.4202 6.59232 12.349 6.6224C11.7638 6.86972 11.1353 6.99808 10.5 7ZM12 7.79832C11.513 7.93037 11.0098 7.99846 10.503 8L10.5 8C10.1069 8 9.69054 7.90225 9.33042 7.79809C8.96251 7.69168 8.56521 7.55127 8.19192 7.41934L8.17607 7.41374C8.17601 7.41372 8.17612 7.41376 8.17607 7.41374C7.17492 7.06013 6.26358 6.75 5.5 6.75C4.69305 6.75 4.2364 6.85189 4 6.93395V11.9755C4.366 11.893 4.85363 11.8333 5.5 11.8333C6.46205 11.8333 7.52573 12.0848 8.41774 12.2956C8.43865 12.3006 8.45946 12.3055 8.48017 12.3104C9.35525 12.5173 10.0141 12.6667 10.5 12.6667C11.1546 12.6667 11.6847 12.5365 12 12.4341V7.79832Z" fill="#9E9E9E"/>
</svg>
