<svg width="16" height="20" viewBox="0 0 16 20" fill="none" xmlns="http://www.w3.org/2000/svg">
<path fill-rule="evenodd" clip-rule="evenodd" d="M3.60059 9.5546C3.60059 7.16567 5.58218 5.25 8.00058 5.25C10.419 5.25 12.4006 7.16567 12.4006 9.5546C12.4006 11.2338 11.3028 12.731 10.3095 13.7553C9.80175 14.279 9.29575 14.7051 8.91734 15.0001C8.72773 15.1479 8.56912 15.2635 8.45695 15.3429C8.40084 15.3826 8.35627 15.4133 8.32518 15.4344L8.28885 15.4588L8.2787 15.4655L8.2757 15.4675L8.27473 15.4681L8.27438 15.4684C8.27424 15.4685 8.27412 15.4685 8.00058 15.05C7.72705 15.4685 7.72693 15.4685 7.72679 15.4684L7.72644 15.4681L7.72547 15.4675L7.72247 15.4655L7.71232 15.4588L7.67599 15.4344C7.6449 15.4133 7.60033 15.3826 7.54422 15.3429C7.43205 15.2635 7.27344 15.1479 7.08383 15.0001C6.70542 14.7051 6.19942 14.279 5.69163 13.7553C4.69839 12.731 3.60059 11.2338 3.60059 9.5546ZM8.00058 15.05L8.27412 15.4685C8.10793 15.5772 7.89324 15.5772 7.72705 15.4685L8.00058 15.05ZM8.00058 14.4394C8.08574 14.3772 8.18779 14.3008 8.30258 14.2114C8.65542 13.9363 9.12442 13.541 9.59162 13.0592C10.5484 12.0725 11.4006 10.822 11.4006 9.5546C11.4006 7.74113 9.89018 6.25 8.00058 6.25C6.11099 6.25 4.60059 7.74113 4.60059 9.5546C4.60059 10.822 5.45278 12.0725 6.40955 13.0592C6.87675 13.541 7.34575 13.9363 7.69859 14.2114C7.81338 14.3008 7.91543 14.3772 8.00058 14.4394ZM6.58579 8.23569C6.96086 7.86062 7.46957 7.6499 8 7.6499C8.53043 7.6499 9.03914 7.86062 9.41421 8.23569C9.78929 8.61076 10 9.11947 10 9.6499C10 10.1803 9.78929 10.689 9.41421 11.0641C9.03914 11.4392 8.53043 11.6499 8 11.6499C7.46957 11.6499 6.96086 11.4392 6.58579 11.0641C6.21071 10.689 6 10.1803 6 9.6499C6 9.11947 6.21071 8.61076 6.58579 8.23569ZM8 8.6499C7.73478 8.6499 7.48043 8.75526 7.29289 8.9428C7.10536 9.13033 7 9.38469 7 9.6499C7 9.91512 7.10536 10.1695 7.29289 10.357C7.48043 10.5445 7.73478 10.6499 8 10.6499C8.26522 10.6499 8.51957 10.5445 8.70711 10.357C8.89464 10.1695 9 9.91512 9 9.6499C9 9.38469 8.89464 9.13033 8.70711 8.9428C8.51957 8.75526 8.26522 8.6499 8 8.6499ZM3.90107 14.856C4.16557 14.7766 4.31566 14.4979 4.23631 14.2334C4.15696 13.9689 3.87822 13.8188 3.61373 13.8982C3.04473 14.0689 2.5479 14.282 2.18216 14.5415C1.82938 14.7917 1.5 15.1591 1.5 15.65C1.5 16.1409 1.82946 16.5083 2.18222 16.7585C2.54796 17.0179 3.04477 17.2311 3.61365 17.4017C4.7578 17.745 6.30847 17.95 8 17.95C9.69153 17.95 11.2422 17.745 12.3863 17.4017C12.9552 17.2311 13.452 17.0179 13.8178 16.7585C14.1705 16.5083 14.5 16.1409 14.5 15.65C14.5 15.159 14.1705 14.7917 13.8177 14.5415C13.4519 14.282 12.9551 14.0689 12.3863 13.8982C12.1218 13.8188 11.8431 13.9689 11.7637 14.2334C11.6843 14.4979 11.8344 14.7766 12.0989 14.856C12.6158 15.0111 12.9977 15.1858 13.2392 15.3571C13.4937 15.5377 13.5 15.6439 13.5 15.65C13.5 15.6561 13.4937 15.7624 13.2392 15.9428C12.9978 16.1141 12.6159 16.2888 12.099 16.4439C11.0716 16.7521 9.62227 16.95 8 16.95C6.37773 16.95 4.9284 16.7521 3.901 16.4439C3.38411 16.2888 3.00225 16.1141 2.76077 15.9428C2.50632 15.7624 2.5 15.6561 2.5 15.65C2.5 15.6438 2.50632 15.5376 2.76074 15.3571C3.0022 15.1858 3.38407 15.0111 3.90107 14.856Z" fill="#9E9E9E"/>
</svg>
