<svg width="20" height="20" viewBox="0 0 20 20" fill="none" xmlns="http://www.w3.org/2000/svg">
<path fill-rule="evenodd" clip-rule="evenodd" d="M6.7627 2.35156C7.17691 2.35156 7.5127 2.68735 7.5127 3.10156V4.36273H12.4863V3.10156C12.4863 2.68735 12.8221 2.35156 13.2363 2.35156C13.6505 2.35156 13.9863 2.68735 13.9863 3.10156V4.36273H14.4541C15.8599 4.36273 16.9995 5.50232 16.9995 6.90809V14.5442C16.9995 15.9499 15.8599 17.0895 14.4541 17.0895H5.54536C4.1396 17.0895 3 15.9499 3 14.5442V6.90809C3 5.50233 4.1396 4.36273 5.54536 4.36273H6.0127V3.10156C6.0127 2.68735 6.34848 2.35156 6.7627 2.35156ZM14.4541 5.86273H5.54536C4.96802 5.86273 4.5 6.33075 4.5 6.90809V8.24945H15.4995V6.90809C15.4995 6.33075 15.0314 5.86273 14.4541 5.86273ZM4.5 14.5442V9.74945H15.4995V14.5442C15.4995 15.1215 15.0314 15.5895 14.4541 15.5895H5.54536C4.96802 15.5895 4.5 15.1215 4.5 14.5442Z" fill="#222222"/>
</svg>
