<svg width="32" height="32" viewBox="0 0 32 32" fill="none" xmlns="http://www.w3.org/2000/svg">
<path d="M21.5296 9.34783H24.4615C25.1348 9.34783 25.7804 9.59519 26.2565 10.0355C26.7326 10.4758 27 11.073 27 11.6957V22.6522C27 23.2749 26.7326 23.872 26.2565 24.3123C25.7804 24.7526 25.1348 25 24.4615 25H7.53846C6.86522 25 6.21955 24.7526 5.7435 24.3123C5.26744 23.872 5 23.2749 5 22.6522V11.6957C5 11.073 5.26744 10.4758 5.7435 10.0355C6.21955 9.59519 6.86522 9.34783 7.53846 9.34783H10.4693L11.912 7.34826C11.9893 7.24119 12.0939 7.15339 12.2165 7.09265C12.3392 7.0319 12.4762 7.00008 12.6154 7H19.3846C19.5238 7.00008 19.6608 7.0319 19.7835 7.09265C19.9062 7.15339 20.0107 7.24119 20.088 7.34826L21.5296 9.34783Z" stroke="#222222" stroke-width="1.75"/>
<circle cx="16" cy="17" r="4" stroke="#222222" stroke-width="1.75"/>
</svg>
