<svg width="24" height="28" viewBox="0 0 24 28" fill="none" xmlns="http://www.w3.org/2000/svg">
<path d="M11.371 6.35285C11.7617 6.13368 12.2383 6.13368 12.629 6.35285L13.8108 7.01578C13.9982 7.12092 14.209 7.1774 14.4239 7.18006L15.7788 7.19684C16.2268 7.20239 16.6396 7.4407 16.8683 7.82586L17.5603 8.99087C17.6701 9.17563 17.8244 9.32994 18.0091 9.43968L19.1742 10.1317C19.5593 10.3605 19.7976 10.7732 19.8032 11.2212L19.82 12.5761C19.8226 12.791 19.8791 13.0018 19.9842 13.1892L20.6472 14.371C20.8663 14.7617 20.8663 15.2383 20.6472 15.629L19.9842 16.8108C19.8791 16.9982 19.8226 17.209 19.82 17.4239L19.8032 18.7788C19.7976 19.2268 19.5593 19.6396 19.1742 19.8683L18.0091 20.5603C17.8244 20.6701 17.6701 20.8244 17.5603 21.0091L16.8683 22.1742C16.6396 22.5593 16.2268 22.7976 15.7788 22.8032L14.4239 22.82C14.209 22.8226 13.9982 22.8791 13.8108 22.9842L12.629 23.6472C12.2383 23.8663 11.7617 23.8663 11.371 23.6472L10.1892 22.9842C10.0018 22.8791 9.79098 22.8226 9.5761 22.82L8.22117 22.8032C7.77322 22.7976 7.36046 22.5593 7.13168 22.1742L6.43968 21.0091C6.32994 20.8244 6.17563 20.6701 5.99087 20.5603L4.82586 19.8683C4.4407 19.6396 4.20239 19.2268 4.19684 18.7788L4.18006 17.4239C4.1774 17.209 4.12092 16.9982 4.01578 16.8108L3.35285 15.629C3.13368 15.2383 3.13368 14.7617 3.35285 14.371L4.01578 13.1892C4.12092 13.0018 4.1774 12.791 4.18006 12.5761L4.19684 11.2212C4.20239 10.7732 4.4407 10.3605 4.82586 10.1317L5.99087 9.43968C6.17563 9.32994 6.32994 9.17563 6.43968 8.99087L7.13168 7.82586C7.36046 7.4407 7.77323 7.20239 8.22117 7.19684L9.5761 7.18006C9.79098 7.1774 10.0018 7.12092 10.1892 7.01578L11.371 6.35285Z" fill="#F34902" fill-opacity="0.952941"/>
<path d="M8.5 14.7857L11.4167 18L16 13" stroke="white" stroke-width="2" stroke-linecap="round" stroke-linejoin="round"/>
</svg>
