<svg width="48" height="48" viewBox="0 0 48 48" fill="none" xmlns="http://www.w3.org/2000/svg">
<path d="M6 17.4143C6 12.4911 9.99106 8.5 14.9143 8.5H33.0857C38.0089 8.5 42 12.4911 42 17.4143V30.5857C42 35.5089 38.0089 39.5 33.0857 39.5H8.22857C6.99777 39.5 6 38.5022 6 37.2714V17.4143Z" fill="#F5F5F5" stroke="#9E9E9E" stroke-width="2"/>
<path fill-rule="evenodd" clip-rule="evenodd" d="M22 20C22 19.1716 21.3284 18.5 20.5 18.5C19.6716 18.5 19 19.1716 19 20V25C19 25.8284 19.6716 26.5 20.5 26.5C21.3284 26.5 22 25.8284 22 25V20ZM33 20C33 19.1716 32.3284 18.5 31.5 18.5C30.6716 18.5 30 19.1716 30 20V25C30 25.8284 30.6716 26.5 31.5 26.5C32.3284 26.5 33 25.8284 33 25V20Z" fill="#9E9E9E"/>
</svg>
