<svg width="20" height="20" viewBox="0 0 20 20" fill="none" xmlns="http://www.w3.org/2000/svg">
<path d="M14.78 6.28222C15.0733 5.98889 15.0733 5.51332 14.78 5.21999C14.4867 4.92667 14.0111 4.92667 13.7178 5.21999L10 8.93778L6.28222 5.21999C5.98889 4.92667 5.51332 4.92667 5.21999 5.21999C4.92667 5.51332 4.92667 5.98889 5.21999 6.28222L8.93778 10L5.21999 13.7178C4.92667 14.0111 4.92667 14.4867 5.21999 14.78C5.51332 15.0733 5.98889 15.0733 6.28222 14.78L10 11.0622L13.7178 14.78C14.0111 15.0733 14.4867 15.0733 14.78 14.78C15.0733 14.4867 15.0733 14.0111 14.78 13.7178L11.0622 10L14.78 6.28222Z" fill="#222222"/>
</svg>
