<svg width="26" height="20" viewBox="0 0 26 20" fill="none" xmlns="http://www.w3.org/2000/svg">
<path fill-rule="evenodd" clip-rule="evenodd" d="M0.625 2.77778C0.625 1.31269 1.81269 0.125 3.27778 0.125H22.7222C24.1873 0.125 25.375 1.31269 25.375 2.77778V17.2222C25.375 18.6873 24.1873 19.875 22.7222 19.875H3.27778C1.81269 19.875 0.625 18.6873 0.625 17.2222V2.77778ZM3.27778 1.875C2.77919 1.875 2.375 2.27919 2.375 2.77778V17.2222C2.375 17.7208 2.77919 18.125 3.27778 18.125H22.7222C23.2208 18.125 23.625 17.7208 23.625 17.2222V2.77778C23.625 2.27919 23.2208 1.875 22.7222 1.875H3.27778Z" fill="#222222"/>
<path fill-rule="evenodd" clip-rule="evenodd" d="M14.4319 9.30836C15.0939 8.71824 15.8448 8.4165 16.6999 8.4165C17.5461 8.4165 18.3159 8.75078 18.9548 9.31823L18.9599 9.32279L25.0862 14.8504L23.9138 16.1496L17.7927 10.6267L17.7903 10.6246C17.4252 10.3012 17.0577 10.1665 16.6999 10.1665C16.3046 10.1665 15.9613 10.2895 15.5967 10.6144L9.96527 15.6483L7.32227 13.2479C6.97207 12.9411 6.66871 12.8341 6.39849 12.8341C6.17811 12.8341 5.89823 12.925 5.55638 13.2337L5.54478 13.2442L2.0629 16.1699L0.937104 14.8301L4.39574 11.9239C4.96562 11.4132 5.64147 11.0841 6.39849 11.0841C7.19753 11.0841 7.8974 11.4228 8.48328 11.9385L8.49351 11.9475L9.97457 13.2928L14.4319 9.30836Z" fill="#222222"/>
<path fill-rule="evenodd" clip-rule="evenodd" d="M5.125 6.5C5.125 5.18832 6.18832 4.125 7.5 4.125C8.81168 4.125 9.875 5.18832 9.875 6.5C9.875 7.81168 8.81168 8.875 7.5 8.875C6.18832 8.875 5.125 7.81168 5.125 6.5Z" fill="#222222"/>
</svg>
