<svg width="17" height="16" viewBox="0 0 17 16" fill="none" xmlns="http://www.w3.org/2000/svg">
<path d="M6.14286 3.25C5.20566 3.25 4.38967 3.58613 3.83087 4.19774C3.2772 4.80278 3 5.63142 3 6.54847C3 8.14145 3.814 9.41071 4.848 10.3979C5.8776 11.3807 8.5 12.75 8.5 12.75C8.5 12.75 11.1224 11.3807 12.152 10.3979C13.186 9.41071 14 8.14145 14 6.54847C14 5.63142 13.7228 4.80278 13.1691 4.19774C12.6103 3.58613 11.7943 3.25 10.8571 3.25C10.0681 3.25 9.28571 3.64583 8.5 4.4375C7.71429 3.64583 6.93192 3.25 6.14286 3.25Z" stroke="#222222" stroke-width="0.833333"/>
</svg>
