<svg width="76" height="39" viewBox="0 0 76 39" fill="none" xmlns="http://www.w3.org/2000/svg">
<path d="M3.47261 28.02C3.47261 26.2653 4.34994 25.388 6.10461 25.388H22.3446C24.0993 25.388 24.9766 26.2653 24.9766 28.02V29.252C24.9766 31.0067 24.0993 31.884 22.3446 31.884H6.10461C4.34994 31.884 3.47261 31.0067 3.47261 29.252V28.02ZM21.6166 27.796H6.83261V29.476H21.6166V27.796ZM8.79261 20.796C9.55794 20.796 9.94061 21.1787 9.94061 21.944V22.056C9.94061 22.8213 9.55794 23.204 8.79261 23.204H7.72861C6.96328 23.204 6.58061 22.8213 6.58061 22.056V21.944C6.58061 21.1787 6.96328 20.796 7.72861 20.796H8.79261ZM25.5926 21.944C26.3953 21.944 26.7966 22.3453 26.7966 23.148V23.26C26.7966 24.0627 26.3953 24.464 25.5926 24.464H2.85661C2.05394 24.464 1.65261 24.0627 1.65261 23.26V23.148C1.65261 22.3453 2.05394 21.944 2.85661 21.944H25.5926ZM3.89261 16.988C3.89261 15.2333 4.76994 14.356 6.52461 14.356H21.9246C23.6793 14.356 24.5566 15.2333 24.5566 16.988V17.912C24.5566 19.6667 23.6793 20.544 21.9246 20.544H6.52461C4.76994 20.544 3.89261 19.6667 3.89261 17.912V16.988ZM21.1966 16.764H7.25261V18.136H21.1966V16.764ZM20.7206 20.796C21.4859 20.796 21.8686 21.1787 21.8686 21.944V22.056C21.8686 22.8213 21.4859 23.204 20.7206 23.204H19.6566C18.8913 23.204 18.5086 22.8213 18.5086 22.056V21.944C18.5086 21.1787 18.8913 20.796 19.6566 20.796H20.7206ZM24.1086 11.108C24.8553 11.108 25.2286 11.4813 25.2286 12.228V12.34C25.2286 13.0867 24.8553 13.46 24.1086 13.46H4.34061C3.59394 13.46 3.22061 13.0867 3.22061 12.34V12.228C3.22061 11.4813 3.59394 11.108 4.34061 11.108H24.1086ZM14.2806 6.292C15.3819 6.292 15.9326 6.84267 15.9326 7.944V10.632C15.9326 11.7333 15.3819 12.284 14.2806 12.284H14.1686C13.0673 12.284 12.5166 11.7333 12.5166 10.632V7.944C12.5166 6.84267 13.0673 6.292 14.1686 6.292H14.2806ZM25.2286 7.58C26.0313 7.58 26.4326 7.98133 26.4326 8.784V8.896C26.4326 9.69867 26.0313 10.1 25.2286 10.1H3.22061C2.41794 10.1 2.01661 9.69867 2.01661 8.896V8.784C2.01661 7.98133 2.41794 7.58 3.22061 7.58H25.2286ZM38.5286 6.208C39.5926 6.35733 40.0406 6.964 39.8726 8.028C39.2193 11.948 38.2206 15.7653 36.8766 19.48C35.5513 23.176 34.0113 26.536 32.2566 29.56C31.7153 30.512 30.9779 30.7173 30.0446 30.176L29.9326 30.12C28.9993 29.5787 28.8033 28.832 29.3446 27.88C31.1366 24.576 32.6393 21.2347 33.8526 17.856C35.0659 14.4773 35.9713 11.052 36.5686 7.58C36.7366 6.516 37.3526 6.05867 38.4166 6.208H38.5286ZM53.2286 8.672C54.2926 8.672 54.8246 9.204 54.8246 10.268V10.38C54.8246 11.444 54.2926 11.976 53.2286 11.976H31.2206C30.1566 11.976 29.6246 11.444 29.6246 10.38V10.268C29.6246 9.204 30.1566 8.672 31.2206 8.672H53.2286ZM49.2526 15.168C50.7646 15.168 51.8193 15.5507 52.4166 16.316C53.0326 17.0627 53.0886 18.1453 52.5846 19.564C51.6886 21.7107 50.4286 23.6613 48.8046 25.416C47.1806 27.152 45.3419 28.608 43.2886 29.784C41.2353 30.96 39.0886 31.8 36.8486 32.304C35.8033 32.528 35.1966 32.108 35.0286 31.044V30.932C34.8606 29.9053 35.2993 29.28 36.3446 29.056C38.3233 28.5893 40.1713 27.88 41.8886 26.928C43.6059 25.9573 45.1086 24.7627 46.3966 23.344C47.7033 21.9067 48.7299 20.2827 49.4766 18.472H37.7446C36.6806 18.472 36.1486 17.94 36.1486 16.876V16.764C36.1486 15.7 36.6806 15.168 37.7446 15.168H49.2526ZM39.3126 20.348C40.1713 19.732 40.9179 19.8533 41.5526 20.712C42.8219 22.336 44.1286 23.6987 45.4726 24.8C46.8353 25.8827 48.1699 26.7413 49.4766 27.376C50.8019 27.992 52.1646 28.4867 53.5646 28.86C54.5913 29.1587 54.9646 29.8213 54.6846 30.848L54.6286 30.96C54.3486 31.9867 53.6953 32.3507 52.6686 32.052C50.8579 31.492 49.1686 30.8107 47.6006 30.008C46.0326 29.2053 44.5113 28.1973 43.0366 26.984C41.5619 25.7707 40.1713 24.3147 38.8646 22.616C38.2299 21.7573 38.3419 21.02 39.2006 20.404L39.3126 20.348ZM58.7726 16.204C58.7726 15.5507 58.9499 15.0467 59.3046 14.692C59.6593 14.3373 60.1633 14.16 60.8166 14.16H60.8726C61.5259 14.16 62.0299 14.3373 62.3846 14.692C62.7393 15.0467 62.9166 15.5507 62.9166 16.204V16.26C62.9166 16.9133 62.7393 17.4173 62.3846 17.772C62.0299 18.1267 61.5259 18.304 60.8726 18.304H60.8166C60.1633 18.304 59.6593 18.1267 59.3046 17.772C58.9499 17.4173 58.7726 16.9133 58.7726 16.26V16.204ZM58.7726 26.9C58.7726 26.2467 58.9499 25.7427 59.3046 25.388C59.6593 25.0333 60.1633 24.856 60.8166 24.856H60.8726C61.5259 24.856 62.0299 25.0333 62.3846 25.388C62.7393 25.7427 62.9166 26.2467 62.9166 26.9V26.956C62.9166 27.6093 62.7393 28.1133 62.3846 28.468C62.0299 28.8227 61.5259 29 60.8726 29H60.8166C60.1633 29 59.6593 28.8227 59.3046 28.468C58.9499 28.1133 58.7726 27.6093 58.7726 26.956V26.9ZM68.4348 6.628C68.8641 6.236 69.2935 6.05867 69.7228 6.096C70.1521 6.13333 70.5348 6.376 70.8708 6.824C72.5321 9.10133 73.6428 11.7893 74.2028 14.888C74.7815 17.968 74.7815 21.048 74.2028 24.128C73.6241 27.208 72.5041 29.8773 70.8428 32.136C70.5068 32.584 70.1241 32.8267 69.6948 32.864C69.2841 32.9013 68.8641 32.724 68.4348 32.332L68.3788 32.276C67.9681 31.9027 67.7441 31.52 67.7068 31.128C67.6881 30.736 67.8468 30.3067 68.1828 29.84C69.4895 27.9733 70.3761 25.78 70.8428 23.26C71.3095 20.74 71.3095 18.2293 70.8428 15.728C70.3761 13.208 69.4801 11.0053 68.1548 9.12C67.5015 8.20533 67.5761 7.39333 68.3788 6.684L68.4348 6.628Z" fill="#EA4F26"/>
</svg>
