<svg width="57" height="25" viewBox="0 0 57 25" fill="none" xmlns="http://www.w3.org/2000/svg">
<path d="M2.14154 17.6955C2.14154 16.7724 2.60308 16.3108 3.52615 16.3108H14.9354C15.8585 16.3108 16.32 16.7724 16.32 17.6955V19.2093C16.32 20.1324 15.8585 20.5939 14.9354 20.5939H3.52615C2.60308 20.5939 2.14154 20.1324 2.14154 19.2093V17.6955ZM14.1046 17.8985H4.35692V19.0062H14.1046V17.8985ZM5.79692 13.2832C6.20308 13.2832 6.40615 13.4862 6.40615 13.8924V14.2616C6.40615 14.6678 6.20308 14.8708 5.79692 14.8708H4.8C4.39385 14.8708 4.19077 14.6678 4.19077 14.2616V13.8924C4.19077 13.4862 4.39385 13.2832 4.8 13.2832H5.79692ZM16.8738 14.0401C17.3046 14.0401 17.52 14.2555 17.52 14.6862V15.0555C17.52 15.4862 17.3046 15.7016 16.8738 15.7016H1.58769C1.15692 15.7016 0.941539 15.4862 0.941539 15.0555V14.6862C0.941539 14.2555 1.15692 14.0401 1.58769 14.0401H16.8738ZM2.41846 10.4216C2.41846 9.49854 2.88 9.037 3.80308 9.037H14.6585C15.5815 9.037 16.0431 9.49854 16.0431 10.4216V11.7324C16.0431 12.6555 15.5815 13.117 14.6585 13.117H3.80308C2.88 13.117 2.41846 12.6555 2.41846 11.7324V10.4216ZM13.8277 10.6247H4.63385V11.5293H13.8277V10.6247ZM13.6615 13.2832C14.0677 13.2832 14.2708 13.4862 14.2708 13.8924V14.2616C14.2708 14.6678 14.0677 14.8708 13.6615 14.8708H12.6646C12.2585 14.8708 12.0554 14.6678 12.0554 14.2616V13.8924C12.0554 13.4862 12.2585 13.2832 12.6646 13.2832H13.6615ZM15.8954 6.89546C16.2892 6.89546 16.4862 7.09238 16.4862 7.48623V7.85546C16.4862 8.24931 16.2892 8.44623 15.8954 8.44623H2.56615C2.17231 8.44623 1.97538 8.24931 1.97538 7.85546V7.48623C1.97538 7.09238 2.17231 6.89546 2.56615 6.89546H15.8954ZM9.48923 3.72007C10.0677 3.72007 10.3569 4.00931 10.3569 4.58777V6.80315C10.3569 7.38161 10.0677 7.67084 9.48923 7.67084H8.97231C8.39385 7.67084 8.10462 7.38161 8.10462 6.80315V4.58777C8.10462 4.00931 8.39385 3.72007 8.97231 3.72007H9.48923ZM16.6338 4.56931C17.0646 4.56931 17.28 4.78469 17.28 5.21546V5.58469C17.28 6.01546 17.0646 6.23084 16.6338 6.23084H1.82769C1.39692 6.23084 1.18154 6.01546 1.18154 5.58469V5.21546C1.18154 4.78469 1.39692 4.56931 1.82769 4.56931H16.6338ZM25.4585 3.70161C26.0246 3.77546 26.2646 4.09546 26.1785 4.66161C25.7477 7.29546 25.0831 9.86161 24.1846 12.3601C23.2985 14.8462 22.24 17.1416 21.0092 19.2462C20.7262 19.7508 20.3385 19.8616 19.8462 19.5785L19.4031 19.3201C18.9108 19.037 18.8062 18.6432 19.0892 18.1385C20.32 15.8985 21.3477 13.6401 22.1723 11.3632C22.9969 9.07392 23.6062 6.74161 24 4.36623C24.0862 3.80007 24.4123 3.55392 24.9785 3.62777L25.4585 3.70161ZM35.1508 5.28931C35.7169 5.28931 36 5.57238 36 6.13854V6.61854C36 7.18469 35.7169 7.46777 35.1508 7.46777H20.2338C19.6677 7.46777 19.3846 7.18469 19.3846 6.61854V6.13854C19.3846 5.57238 19.6677 5.28931 20.2338 5.28931H35.1508ZM32.9354 9.57238C33.7231 9.57238 34.2769 9.77546 34.5969 10.1816C34.9169 10.5755 34.9477 11.1478 34.6892 11.8985C34.1477 13.437 33.3292 14.8278 32.2338 16.0708C31.1508 17.3139 29.8954 18.3478 28.4677 19.1724C27.04 19.997 25.5323 20.5755 23.9446 20.9078C23.3908 21.0308 23.0708 20.8093 22.9846 20.2432L22.9108 19.7632C22.8246 19.2216 23.0585 18.8893 23.6123 18.7662C24.9538 18.4708 26.2031 18.0093 27.36 17.3816C28.5169 16.7416 29.5323 15.9478 30.4062 15.0001C31.28 14.0524 31.9692 12.9693 32.4738 11.7508H24.5354C23.9692 11.7508 23.6862 11.4678 23.6862 10.9016V10.4216C23.6862 9.85546 23.9692 9.57238 24.5354 9.57238H32.9354ZM25.9385 12.877C26.3938 12.5447 26.7877 12.6062 27.12 13.0616C27.9815 14.1816 28.8615 15.1108 29.76 15.8493C30.6708 16.5878 31.5815 17.1724 32.4923 17.6032C33.4031 18.0339 34.3631 18.3847 35.3723 18.6555C35.9138 18.8155 36.1108 19.1662 35.9631 19.7078L35.8154 20.1878C35.6677 20.7293 35.3231 20.9201 34.7815 20.7601C33.5262 20.3785 32.3631 19.917 31.2923 19.3755C30.2338 18.8462 29.2 18.1693 28.1908 17.3447C27.1938 16.5078 26.2523 15.4985 25.3662 14.317C25.0215 13.8616 25.0769 13.4678 25.5323 13.1355L25.9385 12.877Z" fill="#EA4F26"/>
</svg>
