<svg width="32" height="32" viewBox="0 0 32 32" fill="none" xmlns="http://www.w3.org/2000/svg">
<path d="M16 25.8077H27H16ZM21.5 6.23695C21.9862 5.76509 22.6457 5.5 23.3333 5.5C23.6738 5.5 24.011 5.56508 24.3255 5.69153C24.6401 5.81797 24.9259 6.00331 25.1667 6.23695C25.4074 6.47059 25.5984 6.74797 25.7287 7.05324C25.859 7.3585 25.9261 7.68569 25.9261 8.01611C25.9261 8.34653 25.859 8.67372 25.7287 8.97898C25.5984 9.28425 25.4074 9.56163 25.1667 9.79527L9.88889 24.6216L5 25.8077L6.22222 21.0633L21.5 6.23695Z" fill="#F5F5F5"/>
<path d="M16 25.8077H27M21.5 6.23695C21.9862 5.76509 22.6457 5.5 23.3333 5.5C23.6738 5.5 24.011 5.56508 24.3255 5.69153C24.6401 5.81797 24.9259 6.00331 25.1667 6.23695C25.4074 6.47059 25.5984 6.74797 25.7287 7.05324C25.859 7.3585 25.9261 7.68569 25.9261 8.01611C25.9261 8.34653 25.859 8.67372 25.7287 8.97898C25.5984 9.28425 25.4074 9.56163 25.1667 9.79527L9.88889 24.6216L5 25.8077L6.22222 21.0633L21.5 6.23695Z" stroke="#9E9E9E" stroke-width="1.75" stroke-linecap="round" stroke-linejoin="round"/>
</svg>
