<svg width="20" height="20" viewBox="0 0 20 20" fill="none" xmlns="http://www.w3.org/2000/svg">
<path fill-rule="evenodd" clip-rule="evenodd" d="M15.8303 7.4309L16.8956 5.42733C17.0901 5.0616 17.5442 4.92276 17.9099 5.11722C18.2756 5.31168 18.4145 5.7658 18.22 6.13153L16.2282 9.87756L15.8761 10.5398L15.2139 10.1877L11.4679 8.19587C11.1021 8.00141 10.9633 7.54728 11.1578 7.18156C11.3522 6.81583 11.8063 6.67699 12.1721 6.87145L14.4892 8.10347C13.4961 6.13946 11.2323 5.07121 9.02216 5.6634C6.4882 6.34238 4.98443 8.94698 5.6634 11.4809C6.34238 14.0149 8.94698 15.5187 11.4809 14.8397C12.7359 14.5034 13.7371 13.6962 14.3473 12.6572C14.5571 12.3 15.0167 12.1805 15.3739 12.3903C15.731 12.6 15.8505 13.0596 15.6408 13.4168C14.8392 14.7817 13.5198 15.8463 11.8692 16.2886C8.53501 17.182 5.1079 15.2033 4.21451 11.8692C3.32113 8.53501 5.29977 5.1079 8.63393 4.21451C11.5441 3.43473 14.5251 4.843 15.8303 7.4309Z" fill="#222222"/>
</svg>
