<svg width="23" height="23" viewBox="0 0 23 23" fill="none" xmlns="http://www.w3.org/2000/svg">
<path fill-rule="evenodd" clip-rule="evenodd" d="M0.238976 2.41295C-0.311122 0.981052 1.18808 -0.381686 2.56279 0.305554L21.9455 9.99529C22.2246 10.1352 22.46 10.3503 22.624 10.6159C22.7881 10.8816 22.8749 11.1876 22.8749 11.4998C22.8749 11.812 22.7881 12.1181 22.624 12.3837C22.46 12.6494 22.2253 12.8641 21.9462 13.004L2.56381 22.6936C1.18657 23.3843 -0.310069 22.0177 0.238879 20.587L3.03377 13.1C3.12073 12.8676 3.26759 12.6615 3.45914 12.5038C3.65068 12.346 3.88038 12.2414 4.12515 12.2006L8.33199 11.4997L4.12645 10.7991C3.88169 10.7583 3.65176 10.6537 3.46021 10.4959C3.26867 10.3381 3.12203 10.1327 3.03507 9.90025L0.238976 2.41295ZM12.236 10.8495C12.2383 10.8492 12.2406 10.8488 12.2429 10.8484L12.3469 11.4998L12.4053 11.8662L12.236 10.8495ZM12.5187 12.5764L4.60505 13.8947L1.93309 21.0524L21.0414 11.4998L1.93311 1.94726L4.60609 9.10491L12.5228 10.4238C12.7773 10.4654 13.0089 10.5959 13.1764 10.7922C13.3447 10.9895 13.4372 11.2404 13.4372 11.4998C13.4372 11.7593 13.3447 12.0102 13.1764 12.2075C13.008 12.4048 12.7748 12.5355 12.5187 12.5764Z" fill="#222222"/>
</svg>
