<svg width="24" height="24" viewBox="0 0 24 24" fill="none" xmlns="http://www.w3.org/2000/svg">
<path fill-rule="evenodd" clip-rule="evenodd" d="M13.4045 4.1216C13.1124 4 12.7413 4 12 4C11.2587 4 10.8885 4 10.5956 4.1216C10.2068 4.28337 9.89724 4.59501 9.73511 4.988C9.6609 5.1664 9.63248 5.3752 9.62064 5.6784C9.61537 5.89808 9.5549 6.11277 9.44494 6.30218C9.33498 6.49158 9.17917 6.64943 8.99223 6.7608C8.80177 6.86808 8.58767 6.92492 8.36977 6.92603C8.15187 6.92715 7.93721 6.87252 7.74569 6.7672C7.47885 6.6248 7.28544 6.5464 7.09439 6.5208C6.67642 6.46519 6.25368 6.57904 5.91811 6.8376C5.66706 7.0312 5.48154 7.3544 5.11128 8C4.74024 8.6456 4.55551 8.968 4.51367 9.284C4.45841 9.7048 4.57209 10.1304 4.82945 10.4672C4.94629 10.6208 5.11129 10.7496 5.36628 10.9112C5.74285 11.1488 5.98442 11.5536 5.98442 12C5.98442 12.4464 5.74285 12.8512 5.36707 13.088C5.11129 13.2504 4.94629 13.3792 4.82866 13.5328C4.70162 13.6992 4.60838 13.8894 4.55431 14.0925C4.50025 14.2955 4.48643 14.5075 4.51367 14.716C4.55551 15.0312 4.74024 15.3544 5.11128 16C5.48233 16.6456 5.66706 16.968 5.91811 17.1624C6.25283 17.4208 6.67598 17.5344 7.09439 17.4792C7.28544 17.4536 7.47885 17.3752 7.74569 17.2328C7.93731 17.1273 8.15211 17.0726 8.37016 17.0737C8.58822 17.0749 8.80246 17.1318 8.99302 17.2392C9.37669 17.4632 9.60406 17.8752 9.62064 18.3216C9.63248 18.6256 9.6609 18.8336 9.73511 19.012C9.89615 19.404 10.2056 19.716 10.5956 19.8784C10.8877 20 11.2587 20 12 20C12.7413 20 13.1124 20 13.4045 19.8784C13.7933 19.7166 14.1028 19.405 14.265 19.012C14.3392 18.8336 14.3676 18.6256 14.3795 18.3216C14.3952 17.8752 14.6234 17.4624 15.0079 17.2392C15.1983 17.1319 15.4124 17.0751 15.6303 17.074C15.8482 17.0728 16.0629 17.1275 16.2544 17.2328C16.5212 17.3752 16.7147 17.4536 16.9057 17.4792C17.3241 17.5352 17.7473 17.4208 18.082 17.1624C18.333 16.9688 18.5185 16.6456 18.8888 16C19.2598 15.3544 19.4446 15.032 19.4864 14.716C19.5135 14.5074 19.4996 14.2955 19.4454 14.0924C19.3912 13.8893 19.2978 13.6991 19.1706 13.5328C19.0538 13.3792 18.8888 13.2504 18.6338 13.0888C18.2572 12.8512 18.0157 12.4464 18.0157 12C18.0157 11.5536 18.2572 11.1488 18.633 10.912C18.8888 10.7496 19.0538 10.6208 19.1714 10.4672C19.2985 10.3008 19.3917 10.1106 19.4458 9.90754C19.4998 9.70446 19.5137 9.49253 19.4864 9.284C19.4446 8.9688 19.2598 8.6456 18.8888 8C18.5178 7.3544 18.333 7.032 18.082 6.8376C17.7464 6.57904 17.3237 6.46519 16.9057 6.5208C16.7147 6.5464 16.5212 6.6248 16.2544 6.7672C16.0628 6.87266 15.848 6.92737 15.6299 6.92625C15.4119 6.92514 15.1976 6.86822 15.0071 6.7608C14.8203 6.64933 14.6646 6.49144 14.5548 6.30204C14.445 6.11265 14.3846 5.89801 14.3795 5.6784C14.3676 5.3744 14.3392 5.1664 14.265 4.988C14.1847 4.79339 14.0674 4.61671 13.9198 4.46805C13.7721 4.31939 13.597 4.20166 13.4045 4.1216ZM12 14.4C13.3184 14.4 14.3866 13.3256 14.3866 12C14.3866 10.6744 13.3176 9.6 12 9.6C10.6817 9.6 9.61353 10.6744 9.61353 12C9.61353 13.3256 10.6824 14.4 12 14.4Z" stroke="#222222" stroke-width="1.54412"/>
</svg>
