<svg width="140" height="140" viewBox="0 0 140 140" fill="none" xmlns="http://www.w3.org/2000/svg">
<g id="Frame 1403">
<g id="Group 1064">
<path id="Polygon 82" d="M69.9992 49L9.79923 4.2L130.199 4.20001L69.9992 49Z" fill="#F0F5FF"/>
<path id="Polygon 83" d="M70.0008 49L130.201 89.6L9.80077 89.6L70.0008 49Z" fill="#F0F5FF"/>
<path id="Vector 9124" d="M60.2035 74.2L9.80078 48.3L79.798 22.4L130.201 48.3L60.2035 74.2Z" fill="#F0F5FF"/>
<g id="Group 1063">
<g id="AXYZ">
<path id="Vector" d="M96.8223 134.663V131.854L114.153 118.074C114.683 117.65 115.349 117.163 116.152 116.614C116.973 116.04 117.658 115.566 118.205 115.191L119.027 114.667L118.999 114.48C116.827 114.679 114.81 114.779 112.949 114.779H97.452V109.2H130.198V112.083L112.866 125.863C112.063 126.487 111.242 127.086 110.402 127.66C109.563 128.235 108.924 128.646 108.486 128.896L107.829 129.271L107.883 129.458C109.818 129.183 111.616 129.046 113.277 129.046H130.198V134.663H96.8223Z" fill="#F0F5FF"/>
<path id="Vector_2" d="M70.2051 109.2H77.5701L86.8516 119.909H86.9064L96.1879 109.2H103.553V109.537L89.48 125.788V134.663H84.278V125.788L70.2051 109.537V109.2Z" fill="#F0F5FF"/>
<path id="Vector_3" d="M76.6373 109.5L62.7834 121.782V121.856L76.9385 134.4V134.663H68.6426L58.4849 125.489H58.4301L48.2725 134.663H39.9766V134.4L54.1316 121.856V121.782L40.2777 109.5V109.2H48.5463L58.4301 118.149H58.4849L68.3688 109.2H76.6373V109.5Z" fill="#F0F5FF"/>
<path id="Vector_4" d="M40.354 134.663L37.2602 129.982H19.2447L16.1508 134.663H9.79883V134.326L26.3906 109.2H30.1142L46.706 134.326V134.663H40.354ZM24.9669 121.332L22.2837 125.376H34.2485L31.5927 121.332L28.3072 116.09H28.1977C27.1025 117.987 26.0256 119.735 24.9669 121.332Z" fill="#F0F5FF"/>
</g>
</g>
</g>
</g>
</svg>
