<svg width="64" height="64" viewBox="0 0 64 64" fill="none" xmlns="http://www.w3.org/2000/svg">
<rect width="64" height="64" rx="32" fill="#F5F5F5"/>
<path d="M46.9078 28.9373C46.3079 29.503 45.3325 29.5056 44.7291 28.9432L41.254 25.7041C40.9138 25.387 40.7505 24.9394 40.8125 24.4934C40.8744 24.0474 41.1544 23.6539 41.5699 23.4291L45.2959 21.4123C46.0328 21.0135 46.975 21.2501 47.4004 21.9409C47.8258 22.6317 47.5733 23.5151 46.8365 23.9139L44.8544 24.9867L46.9015 26.8948C47.5049 27.4572 47.5077 28.3717 46.9078 28.9373Z" fill="#BDBDBD"/>
<path d="M22.8626 23.4837C23.0805 24.2548 23.9238 24.7143 24.7463 24.5101L29.4834 23.3339C29.9472 23.2187 30.3272 22.9076 30.5114 22.4923C30.6957 22.0771 30.663 21.605 30.4232 21.2155L28.2719 17.7224C27.8465 17.0316 26.9043 16.7949 26.1675 17.1937C25.4306 17.5926 25.1781 18.4759 25.6036 19.1667L26.7479 21.0249L23.9574 21.7177C23.1349 21.922 22.6448 22.7126 22.8626 23.4837Z" fill="#BDBDBD"/>
<path d="M18.0026 31.4164C18.0576 28.9538 20.6634 27.8631 22.6694 28.367L44.098 33.7499C46.1039 34.2538 47.7789 36.4199 46.5131 38.5783C43.4852 43.7418 36.4093 46.1729 29.5558 44.4513C22.7024 42.7297 17.871 37.3074 18.0026 31.4164Z" fill="#BDBDBD"/>
</svg>
