<svg width="65" height="37" viewBox="0 0 65 37" fill="none" xmlns="http://www.w3.org/2000/svg">
<path fill-rule="evenodd" clip-rule="evenodd" d="M42.0001 2.20001C42.0001 1.37159 42.6717 0.700012 43.5001 0.700012C44.3285 0.700012 45.0001 1.37159 45.0001 2.20001C45.0001 3.2381 44.9166 4.34675 44.7597 5.50001H63.3001C64.1285 5.50001 64.8001 6.17159 64.8001 7.00001C64.8001 7.82844 64.1285 8.50001 63.3001 8.50001H44.2117C43.988 9.48956 43.7211 10.4943 43.4163 11.5H58.6083C59.8131 11.5 60.9137 12.0475 61.5861 12.9579C62.277 13.8935 62.4648 15.156 61.9088 16.3523C60.4311 19.5318 57.5407 23.7534 53.4795 27.4506C53.2791 27.6331 53.0755 27.8145 52.869 27.9946C56.0149 30.4852 59.6213 32.2549 63.107 32.5038C63.9333 32.5628 64.5553 33.2806 64.4963 34.1069C64.4373 34.9332 63.7196 35.5552 62.8932 35.4962C58.3845 35.1741 54.0092 32.8406 50.4735 29.915C46.9084 32.5334 42.6331 34.6479 37.7518 35.4787C36.9351 35.6178 36.1604 35.0684 36.0214 34.2517C35.8824 33.435 36.4317 32.6603 37.2484 32.5213C41.3677 31.8201 45.0505 30.079 48.2064 27.8511C45.5508 25.1967 43.4686 22.2101 42.4074 19.5571C42.0997 18.7879 42.4738 17.915 43.243 17.6073C44.0122 17.2996 44.8851 17.6737 45.1928 18.4429C46.1069 20.7281 48.037 23.5006 50.5952 25.994C50.8893 25.7434 51.1775 25.4893 51.4599 25.2322C55.2346 21.7959 57.8831 17.8962 59.1883 15.0879C59.2355 14.9863 59.2368 14.9201 59.2328 14.8829C59.2283 14.8419 59.2121 14.7933 59.1728 14.7401C59.0924 14.6312 58.9062 14.5 58.6083 14.5H42.3964C42.15 15.1536 41.8896 15.8014 41.6169 16.4395C39.5943 21.1716 36.7638 25.669 33.5899 28.0076C32.923 28.499 31.9839 28.3567 31.4925 27.6898C31.0011 27.0229 31.1434 26.0839 31.8103 25.5924C34.3364 23.7311 36.9059 19.8284 38.8583 15.2605C39.2283 14.3949 39.5714 13.5163 39.8846 12.636C39.9075 12.5442 39.9388 12.4557 39.9777 12.3715C40.4315 11.0703 40.819 9.76768 41.1297 8.50001H34.5001C33.6717 8.50001 33.0001 7.82844 33.0001 7.00001C33.0001 6.17159 33.6717 5.50001 34.5001 5.50001H41.7291C41.9064 4.32518 42.0001 3.21345 42.0001 2.20001ZM16.8 2.20001C16.8 1.53727 16.2627 1.00001 15.6 1.00001C14.9373 1.00001 14.4 1.53727 14.4 2.20001V3.40001H1.2C0.537258 3.40001 0 3.93727 0 4.60001C0 5.26275 0.537258 5.80001 1.2 5.80001H14.4V7.00001H3.6C2.93726 7.00001 2.4 7.53727 2.4 8.20001C2.4 8.86275 2.93726 9.40001 3.6 9.40001H15.6H27.6C28.2627 9.40001 28.8 8.86275 28.8 8.20001C28.8 7.53727 28.2627 7.00001 27.6 7.00001H16.8V5.80001H30C30.6627 5.80001 31.2 5.26275 31.2 4.60001C31.2 3.93727 30.6627 3.40001 30 3.40001H16.8V2.20001ZM11.1 19C11.1 18.1716 10.4284 17.5 9.6 17.5C8.77157 17.5 8.1 18.1716 8.1 19V20.2C8.1 21.0284 8.77157 21.7 9.6 21.7C10.4284 21.7 11.1 21.0284 11.1 20.2V19ZM23.1 19C23.1 18.1716 22.4284 17.5 21.6 17.5C20.7716 17.5 20.1 18.1716 20.1 19V20.2C20.1 21.0284 20.7716 21.7 21.6 21.7C22.4284 21.7 23.1 21.0284 23.1 20.2V19ZM4.2 10.6C2.54315 10.6 1.2 11.9432 1.2 13.6C1.2 15.2569 2.54314 16.6 4.2 16.6H27C28.6569 16.6 30 15.2569 30 13.6C30 11.9432 28.6569 10.6 27 10.6H4.2ZM3.6 13.6C3.6 13.2686 3.86863 13 4.2 13H27C27.3314 13 27.6 13.2686 27.6 13.6C27.6 13.9314 27.3314 14.2 27 14.2H4.2C3.86863 14.2 3.6 13.9314 3.6 13.6ZM4.14169 25.6691C4.13236 25.7022 4.12669 25.7485 4.14414 25.8195C5.21682 30.1866 9.81594 33.7 15.6 33.7C21.3841 33.7 25.9832 30.1866 27.0559 25.8195C27.0733 25.7485 27.0676 25.7022 27.0583 25.6691C27.0478 25.6317 27.0237 25.5816 26.9721 25.526C26.8628 25.4081 26.6585 25.3 26.4 25.3H4.8C4.54154 25.3 4.33723 25.4081 4.22791 25.526C4.17632 25.5816 4.1522 25.6317 4.14169 25.6691ZM1.23074 26.5352C0.620517 24.0508 2.77798 22.3 4.8 22.3H26.4C28.422 22.3 30.5795 24.0508 29.9693 26.5352C28.5095 32.478 22.5083 36.7 15.6 36.7C8.69173 36.7 2.69048 32.478 1.23074 26.5352Z" fill="#F34902"/>
</svg>
