<svg width="8" height="8" viewBox="0 0 8 8" fill="none" xmlns="http://www.w3.org/2000/svg">
<path fill-rule="evenodd" clip-rule="evenodd" d="M7.54423 0.454963C7.83829 0.748851 7.83829 1.22564 7.54423 1.51976L5.06488 3.99908L7.54423 6.4784C7.83826 6.77252 7.83826 7.24931 7.54423 7.5432C7.25019 7.83732 6.77346 7.83732 6.4794 7.5432L4.00005 5.06388L1.5207 7.5432C1.22667 7.83732 0.749935 7.83732 0.455875 7.5432C0.161844 7.24931 0.161844 6.77252 0.455875 6.4784L2.93522 3.99908L0.455875 1.51976C0.161844 1.22564 0.161844 0.748851 0.455875 0.454963C0.749907 0.160846 1.22664 0.160846 1.5207 0.454963L4.00005 2.93428L6.4794 0.454963C6.77346 0.160846 7.25019 0.160846 7.54423 0.454963Z" fill="white"/>
</svg>
